<svg xmlns="http://www.w3.org/2000/svg" viewBox="0 0 512 512" style="height: 512px; width: 512px;"><path d="M0 0h512v512H0z" fill="url(#pattern)" fill-opacity="1"></path><svg><defs><linearGradient id="a" x1="240" y1="16" x2="240" y2="496" gradientUnits="userSpaceOnUse"><stop offset="0" stop-color="#7d787a"></stop><stop offset="1" stop-color="#423e44"></stop></linearGradient></defs><path fill="url(#a)" fill-rule="evenodd" d="M0 0h512v512H0z"></path><path d="M8 0l30.63 37.93 259.87-9.84 178.4 11.95L504 0H204.7l-10.2 8.779L159.4 0z" overflow="visible" fill="#fff" fill-opacity=".269" fill-rule="evenodd"></path><path d="M2.809 511.6l42.841-40.7L184 468.5l27.4 26.6 10.5-23.8 250.1 7 6.7 18.3 29.3 15.7z" overflow="visible" fill-opacity=".24" fill-rule="evenodd"></path><path d="M511.7 16.15l-39.1 50.39-2 324.26 10.1 19.9-7.3 53.5 20.9 9.1 18 23.8L512 215l-15.5-28.8 15.4-11.4z" overflow="visible" fill-opacity=".19" fill-rule="evenodd"></path><path d="M0 15.18L35.12 61.1l-8.61 93.8 10.19 13.9-5.13 97.4-14.85 18.9 12.62 23.3 7.5 83.9v57.4L-.743 496.5z" overflow="visible" fill="#fff" fill-opacity=".099" fill-rule="evenodd"></path><path d="M51.56 56.62L43.16 141l10.74 22.4-8.99 103.7-10.46 17.5 7.05 21.8 10.61 116.8 21.9 32.6 109.29.5 34.2-12.4 6.5 12.5 235.3 2.3 6.9-33.9-13.7-12.6 6.2-20.4-6-331.94-150-14.62-29.5 1.34-1.4 25.57-60.4-22.77z" overflow="visible" fill="#797677" fill-opacity=".434" fill-rule="evenodd"></path></svg><g class="" transform="translate(-1,-16)" style="touch-action: none;"><g transform="translate(51.2, 51.2) scale(0.8, 0.8) rotate(0, 256, 256)"><path d="M256 32.19C290.6 74.26 348.8 89.65 406.1 103.9L395.7 198C329.6 191.4 292.7 188.1 256 188.1C219.4 188.1 182.4 191.4 116.3 198L105.8 103.9C163 89.65 221.4 74.26 256 32.19Z" class="" fill="#bebebe" fill-opacity="1" stroke="#ffffff" stroke-opacity="1" stroke-width="8"></path><path d="M421.3 195.3C440.6 201.2 463.1 204.5 488.6 205.7C476.8 216.8 455.9 229 454.3 244.9C452.7 263.8 459 281.2 466.4 297.4C449.1 298.4 433.2 295.6 417.7 291.1C424.9 258.7 425 233.4 425 209.1L425 202.9C421.3 195.3 422.1 196.6 421.3 195.3Z" class="" fill="#f98d0f" fill-opacity="1" stroke="#ffffff" stroke-opacity="1" stroke-width="8"></path><path d="M90.57 195.3L87.07 203L86.97 209C86.77 233.3 86.97 258.7 94.27 291.1C78.67 295.6 62.77 298.4 45.47 297.4C52.87 281.1 59.27 263.8 57.67 244.8C53.27 227.3 35.97 216 23.27 205.7C48.87 204.5 71.37 201.2 90.57 195.3Z" class="" fill="#f98d0f" fill-opacity="1" stroke="#ffffff" stroke-opacity="1" stroke-width="8"></path><path d="M256 206.1C294 206.1 333 209.8 407 217.2C406.9 244.7 405.7 272.3 393.6 311.3C260.3 296.6 251.7 296.6 118.4 311.3C106.2 272.2 104.9 244.6 105 217.3C179 209.9 218 206.1 256 206.1Z" class="" fill="#f98d0f" fill-opacity="1" stroke="#ffffff" stroke-opacity="1" stroke-width="8"></path><path d="M256 318C288.4 318 321.1 321.4 381.3 328L375.1 383.6C367.8 419.7 338.5 443.9 309.8 459.2C283.9 472.9 260.7 478.7 256 479.8C251.3 478.7 228.1 472.9 202.2 459.2C173.5 443.8 144.2 419.7 136.9 383.6L130.7 328C190.9 321.4 223.6 318 256 318Z" class="selected" fill="#bebebe" fill-opacity="1" stroke="#ffffff" stroke-opacity="1" stroke-width="8"></path></g></g><g font-family="Arial, Helvetica, sans-serif" font-size="120" font-style="normal" font-weight="bold" text-anchor="middle" class="" transform="translate(251,305)" style="touch-action: none;"><text stroke="rgba(249, 141, 15, 1)" stroke-width="30"><tspan x="0" y="0">7</tspan></text><text fill="rgba(255, 255, 255, 1)"><tspan x="0" y="0">7</tspan></text></g></svg>