<svg xmlns="http://www.w3.org/2000/svg" viewBox="0 0 512 512" style="height: 512px; width: 512px;"><defs><linearGradient x1="0" x2="1" y1="0" y2="1" id="gradient-2"><stop offset="0%" stop-color="#dedede" stop-opacity="1"></stop><stop offset="100%" stop-color="#fcf7f4" stop-opacity="1"></stop></linearGradient><linearGradient x1="0" x2="1" y1="0" y2="1" id="gradient-6"><stop offset="0%" stop-color="#dedede" stop-opacity="1"></stop><stop offset="100%" stop-color="#fcf7f4" stop-opacity="1"></stop></linearGradient></defs><g class="" transform="translate(0,0)" style="touch-action: none;"><path d="M256 26.2L52 135h408L256 26.2zM73 153v14h366v-14H73zm16 32v206h30V185H89zm101.334 0v206h30V185h-30zm101.332 0v206h30V185h-30zM393 185v206h30V185h-30zM73 409v30h366v-30H73zm-32 48v30h430v-30H41z" fill="#000000" fill-opacity="1" transform="translate(0, 0) scale(1, 1) rotate(360, 256, 256)"></path></g></svg>