<svg xmlns="http://www.w3.org/2000/svg" viewBox="0 0 512 512" style="height: 512px; width: 512px;"><defs><linearGradient x1="0" x2="1" y1="0" y2="1" id="gradient-1"><stop offset="0%" stop-color="#dedede" stop-opacity="1"></stop><stop offset="100%" stop-color="#fcf7f4" stop-opacity="1"></stop></linearGradient><linearGradient x1="0" x2="1" y1="0" y2="1" id="gradient-2"><stop offset="0%" stop-color="#dedede" stop-opacity="1"></stop><stop offset="100%" stop-color="#fcf7f4" stop-opacity="1"></stop></linearGradient><linearGradient x1="0" x2="1" y1="0" y2="1" id="gradient-6"><stop offset="0%" stop-color="#dedede" stop-opacity="1"></stop><stop offset="100%" stop-color="#fcf7f4" stop-opacity="1"></stop></linearGradient></defs><g class="" transform="translate(0,0)" style="touch-action: none;"><g><path d="M256 32.19C290.6 74.26 348.8 89.65 406.1 103.9L395.7 198C329.6 191.4 292.7 188.1 256 188.1C219.4 188.1 182.4 191.4 116.3 198L105.8 103.9C163 89.65 221.4 74.26 256 32.19Z" class="" fill="url(#gradient-2)"></path><path d="M421.3 195.3C440.6 201.2 463.1 204.5 488.6 205.7C476.8 216.8 455.9 229 454.3 244.9C452.7 263.8 459 281.2 466.4 297.4C449.1 298.4 433.2 295.6 417.7 291.1C424.9 258.7 425 233.4 425 209.1L425 202.9C421.3 195.3 422.1 196.6 421.3 195.3Z" class="" fill="#f98d0f" fill-opacity="1"></path><path d="M90.57 195.3L87.07 203L86.97 209C86.77 233.3 86.97 258.7 94.27 291.1C78.67 295.6 62.77 298.4 45.47 297.4C52.87 281.1 59.27 263.8 57.67 244.8C53.27 227.3 35.97 216 23.27 205.7C48.87 204.5 71.37 201.2 90.57 195.3Z" class="selected" fill="#f98d0f" fill-opacity="1"></path><path d="M256 206.1C294 206.1 333 209.8 407 217.2C406.9 244.7 405.7 272.3 393.6 311.3C260.3 296.6 251.7 296.6 118.4 311.3C106.2 272.2 104.9 244.6 105 217.3C179 209.9 218 206.1 256 206.1Z" class="" fill="#f98d0f" fill-opacity="1"></path><path d="M256 318C288.4 318 321.1 321.4 381.3 328L375.1 383.6C367.8 419.7 338.5 443.9 309.8 459.2C283.9 472.9 260.7 478.7 256 479.8C251.3 478.7 228.1 472.9 202.2 459.2C173.5 443.8 144.2 419.7 136.9 383.6L130.7 328C190.9 321.4 223.6 318 256 318Z" class="" fill="url(#gradient-6)"></path></g></g><g font-family="Arial, Helvetica, sans-serif" font-size="100" font-style="normal" font-weight="bold" text-anchor="middle" class="" transform="translate(255,291)" style="touch-action: none;"><text stroke="rgba(249, 141, 15, 0)" stroke-width="25"><tspan x="0" y="0">5th</tspan></text><text fill="rgba(255, 255, 255, 1)"><tspan x="0" y="0">5th</tspan></text></g></svg>